<svg width="32" height="49" viewBox="0 0 32 49" fill="none" xmlns="http://www.w3.org/2000/svg">
<path d="M32 16C32.0008 11.5848 30.2076 7.57815 27.3133 4.68609C24.4219 1.79251 20.4145 -0.000757291 16 2.39909e-07C11.5856 -0.000757291 7.57815 1.79251 4.68684 4.68675C1.79251 7.57815 -0.000662431 11.5848 4.08263e-07 16C-0.000662431 18.9531 0.805824 21.7262 2.20612 24.0997C2.20688 24.1005 2.20764 24.1011 2.20764 24.1011C2.21209 24.11 2.21654 24.119 2.22108 24.1264L2.2225 24.1257C3.20464 25.8727 4.61762 27.6011 5.76491 29.2506C6.34082 30.0758 6.84751 30.8764 7.19796 31.6084C7.55135 32.3414 7.73808 32.9961 7.74632 33.5222V42.3875C7.74708 45.1233 9.96286 47.339 12.6987 47.3398H13.6979C14.2329 48.0296 15.0603 48.482 16 48.482C16.9397 48.482 17.7671 48.0296 18.3021 47.3399H19.3013C22.0372 47.3391 24.253 45.1234 24.2537 42.3875V32.3556H23.1108H9.8765C9.74033 31.7618 9.52832 31.1837 9.25902 30.6197C8.60053 29.2536 7.64737 27.9322 6.70396 26.6421C5.7597 25.3571 4.82377 24.1049 4.20316 22.9873L4.19274 22.9687L4.18754 22.9612C2.97928 20.9211 2.28651 18.5469 2.28576 16C2.28651 12.2091 3.81919 8.78793 6.30285 6.30285C8.78793 3.81843 12.2091 2.28651 16 2.28566C19.7909 2.28642 23.2121 3.81843 25.6972 6.30285C28.1807 8.78793 29.7135 12.209 29.7141 16C29.7135 18.5469 29.0207 20.9211 27.8117 22.9612L27.8035 22.9754L27.7953 22.9903C26.8593 24.6785 25.6189 25.8705 24.2603 26.6533C22.9024 27.4345 21.4203 27.8013 20.0267 27.8013C18.401 27.8028 16.9129 27.3006 15.8757 26.4434C15.3549 26.0148 14.942 25.5 14.6533 24.8981C14.3652 24.2953 14.1987 23.6004 14.1979 22.7858C14.1979 22.7024 14.2151 22.6072 14.2188 22.5208C15.9725 20.9509 20.7955 21.0669 21.7783 15.8735C22.4026 12.5691 20.6726 9.84743 20.3817 7.87349C11.4926 7.11161 7.42939 15.1115 11.6876 21.4545C11.7992 21.6204 11.8907 21.7514 11.968 21.8696C11.9354 22.1798 11.9123 22.4865 11.9123 22.7856C11.9115 23.9188 12.1518 24.9678 12.5916 25.8844C13.2507 27.2632 14.346 28.3272 15.6474 29.028C16.9502 29.7312 18.4614 30.0861 20.0268 30.0869C21.8177 30.0861 23.6868 29.6188 25.4003 28.6337C27.1049 27.6546 28.648 26.156 29.7783 24.1263C29.779 24.1249 29.7798 24.1233 29.7812 24.1219C29.7857 24.113 29.7908 24.1055 29.7954 24.0972L29.7946 24.0966C31.1949 21.7239 32.0008 18.9523 32 16ZM10.032 34.6413H21.9679V38.1993L10.032 35.6614V34.6413ZM10.032 37.2194L21.9679 39.7574V42.3875C21.9679 42.5505 21.9478 42.7083 21.9203 42.8623L10.032 40.3347V37.2194ZM10.032 41.8935L21.1927 44.2663C21.1904 44.2686 21.1889 44.2708 21.1866 44.273C20.7009 44.7575 20.0415 45.0535 19.3012 45.0542H12.6986C11.9583 45.0535 11.299 44.7574 10.8132 44.273C10.3288 43.7872 10.0327 43.1279 10.032 42.3876V41.8935ZM13.3973 18.9166C13.3973 18.302 13.3973 17.2767 14.5253 14.3021C15.6532 11.3281 18.5245 9.38022 18.7298 9.79014C15.1413 14.0975 14.395 19.029 14.3199 19.3274C14.2173 19.738 13.3973 19.5326 13.3973 18.9166Z" fill="white" stroke="white" stroke-width="0.00666667" id="logo"/>
</svg>
